# xmcd
#
# Track frame offsets: 
#        150
#        12334
#        20895
#        32802
#        37555
#        55639
#        75442
#        84877
#        92840
#        110600
#        121342
#        129970
#        136375
#
# Disc length: 1850 seconds
#
# Revision: 3
# Processed by: cddbd v1.5.2PL0 Copyright (c) Steve Scherf et al.
# Submitted via: ExactAudioCopy v0.99pb4
#
DISCID=9407380d
DTITLE=Luther Wright and the Wrongs - Rebuild the wall pt.1
DYEAR=2001
DGENRE=Country
TTITLE0=In The Flesh?
TTITLE1=The Thin Ice
TTITLE2=Another Brick In The Wall part 1.
TTITLE3=The Happiest Days of Our Lives
TTITLE4=Another Brick In The Wall part 2.
TTITLE5=Mother
TTITLE6=Goodbye Blue Sky
TTITLE7=Empty Spaces
TTITLE8=Young Lust
TTITLE9=One of My Turns
TTITLE10=Don't Leave Me Now
TTITLE11=Another Brick In The Wall part 3.
TTITLE12=Goodbye Cruel World
EXTD=ID3G:   2
EXTT0=
EXTT1=
EXTT2=
EXTT3=
EXTT4=
EXTT5=
EXTT6=
EXTT7=
EXTT8=
EXTT9=
EXTT10=
EXTT11=
EXTT12=
PLAYORDER=
